<?xml version="1.0" encoding="utf-8"?>
<!-- Generator: Adobe Illustrator 16.0.0, SVG Export Plug-In . SVG Version: 6.00 Build 0)  -->
<!DOCTYPE svg PUBLIC "-//W3C//DTD SVG 1.1//EN" "http://www.w3.org/Graphics/SVG/1.1/DTD/svg11.dtd">
<svg version="1.1" id="Layer_1" xmlns="http://www.w3.org/2000/svg" xmlns:xlink="http://www.w3.org/1999/xlink" x="0px" y="0px"
	 width="55px" height="55px" viewBox="0 0 55 55" enable-background="new 0 0 55 55" xml:space="preserve">
<g>
	<rect fill="none" width="15" height="10"/>
	<rect width="2" height="20"/>
	<rect x="13" width="2" height="20"/>
	<rect y="18" width="13" height="2"/>
	<rect x="1" width="12" height="2"/>
	<rect y="23" width="2" height="20"/>
	<rect y="41" width="15" height="2"/>
	<rect x="13" y="23" width="2" height="18"/>
	<rect x="1" y="23" width="12" height="2"/>
	<rect x="18" width="2" height="26"/>
	<rect x="19" y="24" width="13" height="2"/>
	<rect x="31" width="2" height="26"/>
	<rect x="20" width="11" height="2"/>
	<rect x="36" width="2" height="13"/>
	<rect x="37" y="11" width="14" height="2"/>
	<rect x="38" width="13" height="2"/>
	<rect x="49" y="2" width="2" height="9"/>
	<rect x="36" y="16" width="2" height="22"/>
	<rect x="37" y="16" width="14" height="2"/>
	<rect x="49" y="18" width="2" height="20"/>
	<rect x="38" y="36" width="11" height="2"/>
	<rect x="18" y="29" width="2" height="20"/>
	<rect x="19" y="29" width="14" height="2"/>
	<rect x="31" y="30" width="2" height="19"/>
	<rect x="19" y="47" width="12" height="2"/>
</g>
</svg>
