<?xml version="1.0" encoding="utf-8"?>
<!-- Generator: Adobe Illustrator 16.0.0, SVG Export Plug-In . SVG Version: 6.00 Build 0)  -->
<!DOCTYPE svg PUBLIC "-//W3C//DTD SVG 1.1//EN" "http://www.w3.org/Graphics/SVG/1.1/DTD/svg11.dtd">
<svg version="1.1" id="Layer_1" xmlns="http://www.w3.org/2000/svg" xmlns:xlink="http://www.w3.org/1999/xlink" x="0px" y="0px"
	 width="55px" height="55px" viewBox="0 0 55 55" enable-background="new 0 0 55 55" xml:space="preserve">
<rect fill="none" width="15" height="10"/>
<g>
	<g>
		<g>
			<rect width="2" height="10"/>
			<rect x="13" width="2" height="10"/>
			<rect width="15" height="2"/>
			<rect y="8" width="15" height="2"/>
			<rect y="12" width="12" height="2"/>
			<rect y="16" width="6" height="2"/>
		</g>
		<g>
			<rect x="18" width="2" height="10"/>
			<rect x="31" width="2" height="10"/>
			<rect x="18" width="15" height="2"/>
			<rect x="18" y="8" width="15" height="2"/>
			<rect x="18" y="12" width="12" height="2"/>
			<rect x="18" y="16" width="6" height="2"/>
		</g>
		<g>
			<rect x="36" width="2" height="10"/>
			<rect x="49" width="2" height="10"/>
			<rect x="36" width="15" height="2"/>
			<rect x="36" y="8" width="15" height="2"/>
			<rect x="36" y="12" width="12" height="2"/>
			<rect x="36" y="16" width="6" height="2"/>
		</g>
	</g>
	<g>
		<g>
			<rect y="25" width="2" height="10"/>
			<rect x="13" y="25" width="2" height="10"/>
			<rect y="25" width="15" height="2"/>
			<rect y="33" width="15" height="2"/>
			<rect y="37" width="12" height="2"/>
			<rect y="41" width="6" height="2"/>
		</g>
		<g>
			<rect x="18" y="25" width="2" height="10"/>
			<rect x="31" y="25" width="2" height="10"/>
			<rect x="18" y="25" width="15" height="2"/>
			<rect x="18" y="33" width="15" height="2"/>
			<rect x="18" y="37" width="12" height="2"/>
			<rect x="18" y="41" width="6" height="2"/>
		</g>
		<g>
			<rect x="36" y="25" width="2" height="10"/>
			<rect x="49" y="25" width="2" height="10"/>
			<rect x="36" y="25" width="15" height="2"/>
			<rect x="36" y="33" width="15" height="2"/>
			<rect x="36" y="37" width="12" height="2"/>
			<rect x="36" y="41" width="6" height="2"/>
		</g>
	</g>
</g>
</svg>
