<?xml version="1.0" encoding="utf-8"?>
<!-- Generator: Adobe Illustrator 16.0.0, SVG Export Plug-In . SVG Version: 6.00 Build 0)  -->
<!DOCTYPE svg PUBLIC "-//W3C//DTD SVG 1.1//EN" "http://www.w3.org/Graphics/SVG/1.1/DTD/svg11.dtd">
<svg version="1.1" id="Layer_1" xmlns="http://www.w3.org/2000/svg" xmlns:xlink="http://www.w3.org/1999/xlink" x="0px" y="0px"
	 width="124px" height="24px" viewBox="0 0 124 24" enable-background="new 0 0 124 24" xml:space="preserve">
<g>
	<path fill="#FFFFFF" d="M23.62,11.493c0,3.408-1.123,6.245-3.369,8.511c-2.256,2.266-5.083,3.398-8.481,3.398
		c-3.281,0-6.064-1.118-8.35-3.354c-2.295-2.256-3.442-5.02-3.442-8.291c0-3.281,1.167-6.021,3.501-8.218
		C5.764,1.4,8.557,0.331,11.857,0.331c2.461,0,4.741,0.718,6.841,2.153c2.178,1.484,3.599,3.384,4.263,5.698h-6.357
		c-1.074-1.914-2.705-2.871-4.893-2.871c-1.777,0-3.242,0.635-4.395,1.904c-1.113,1.23-1.67,2.744-1.67,4.541
		c0,1.875,0.542,3.438,1.626,4.688c1.143,1.318,2.632,1.978,4.468,1.978c1.279,0,2.383-0.288,3.311-0.864
		c0.996-0.625,1.66-1.528,1.992-2.71h-6.621v-4.526h13.169c0.01,0.176,0.02,0.371,0.029,0.586V11.493z"/>
	<path fill="#FFFFFF" d="M40.334,22.948L39.25,19.74h-7.705l-1.172,3.208h-6.094l8.906-22.207h4.468l8.833,22.207H40.334z
		 M35.471,7.655h-0.088l-2.285,7.588h4.658L35.471,7.655z"/>
	<path fill="#FFFFFF" d="M48.903,22.948V0.741h5.669v17.227h6.577v4.98H48.903z"/>
	<path fill="#FFFFFF" d="M77.146,22.948l-1.084-3.208h-7.705l-1.172,3.208h-6.094l8.906-22.207h4.468l8.833,22.207H77.146z
		 M72.282,7.655h-0.088l-2.285,7.588h4.658L72.282,7.655z"/>
	<path fill="#FFFFFF" d="M97.932,22.948l-4.805-7.866l-4.556,7.866h-6.328l7.764-11.821l-6.87-10.386h6.431l3.809,6.343l3.691-6.343
		h6.387l-6.782,10.503l7.676,11.704H97.932z"/>
	<path fill="#FFFFFF" d="M117.253,14.877v8.071h-5.669v-8.071l-6.636-14.136h6.152l3.296,8.921l3.325-8.921h6.094L117.253,14.877z"
		/>
</g>
</svg>
